<svg width="203mm" height="114mm" version="1.1" viewBox="0 0 203 114" xmlns="http://www.w3.org/2000/svg" xmlns:xlink="http://www.w3.org/1999/xlink">
 <rect width="203" height="114" fill="#fff"/><path id="b" d="m190 13c-57 0-137 0-173 36" fill="none" stroke="#00f"/>
 <g font-family="'Times New Roman'" font-size="7px">
 <g id="c"><path d="m194 47 5 2-5 2 1-2zm-179-39 2-5 2 5-2-1"/>
 <g text-anchor="middle"><text x="195" y="46" font-style="italic">t</text><text x="51" y="57">τ</text><text x="85" y="57">2τ</text><text x="119" y="57">3τ</text><text x="153" y="57">4τ</text><text x="187" y="57">5τ</text><text x="17" y="57">0</text></g>
 <path d="m15 13h2m102 36v2m68 0v-2m-34 2v-2m-68 2v-2m-34 2v-2m-34-44v46m-2-2h181" stroke="#000" stroke-width=".5"/></g>
 <use transform="translate(0 55)" xlink:href="#c"/><use transform="matrix(1 0 0-1 0 117)" xlink:href="#b"/><path d="m17 68 34 36m-34-91h179m-179 36 34-36v36" fill="none" stroke="#f00" stroke-width=".5"/>
 <g text-anchor="end"><text x="14" y="70" font-style="italic">I<tspan dy="1" font-size="5px" font-style="normal">max</tspan></text><text x="14" y="16" font-style="italic">U<tspan dy="1" font-size="5px" font-style="normal">max</tspan></text></g>
 <text x="21" y="8" font-style="italic">U(t)</text><text x="21" y="63" font-style="italic">I(t)</text></g></svg>