<?xml version="1.0" encoding="UTF-8" standalone="no"?>
<svg
   width="400"
   height="400"
   viewBox="0 0 400 400"
   version="1.1"
   id="svg125"
   sodipodi:docname="messbruecke3.svg"
   inkscape:version="1.2.2 (b0a8486541, 2022-12-01)"
   inkscape:export-filename="messbruecke3_1.png"
   inkscape:export-xdpi="96"
   inkscape:export-ydpi="96"
   xmlns:inkscape="http://www.inkscape.org/namespaces/inkscape"
   xmlns:sodipodi="http://sodipodi.sourceforge.net/DTD/sodipodi-0.dtd"
   xmlns="http://www.w3.org/2000/svg"
   xmlns:svg="http://www.w3.org/2000/svg">
  <sodipodi:namedview
     id="namedview127"
     pagecolor="#ffffff"
     bordercolor="#666666"
     borderopacity="1.0"
     inkscape:showpageshadow="2"
     inkscape:pageopacity="0.0"
     inkscape:pagecheckerboard="0"
     inkscape:deskcolor="#d1d1d1"
     showgrid="true"
     inkscape:zoom="3.0812274"
     inkscape:cx="152.21207"
     inkscape:cy="114.07792"
     inkscape:current-layer="svg125"
     showguides="true">
    <inkscape:grid
       type="xygrid"
       id="grid1412"
       originx="0"
       originy="0" />
    <sodipodi:guide
       position="248,352"
       orientation="1,0"
       id="guide693"
       inkscape:locked="false" />
  </sodipodi:namedview>
  <defs
     id="defs31">
    <g
       id="g29">
      <g
         id="glyph-0-0">
        <path
           d="m 4.5625,0.125 c -0.71875,0 -1.351562,-0.12890625 -1.890625,-0.390625 -0.53125,-0.257813 -0.949219,-0.640625 -1.25,-1.140625 -0.292969,-0.5 -0.4375,-1.097656 -0.4375,-1.796875 v -5.59375 H 2.1875 v 5.5 c 0,0.804687 0.203125,1.414063 0.609375,1.828125 0.40625,0.417969 0.992187,0.625 1.765625,0.625 0.789062,0 1.40625,-0.210938 1.84375,-0.640625 C 6.84375,-1.921875 7.0625,-2.550781 7.0625,-3.375 V -8.796875 H 8.25 V -3.3125 c 0,0.710938 -0.152344,1.324219 -0.453125,1.84375 -0.304687,0.523438 -0.730469,0.917969 -1.28125,1.1875 C 5.960938,-0.0078125 5.3125,0.125 4.5625,0.125 Z m 0,0"
           id="path2" />
      </g>
      <g
         id="glyph-0-1">
        <path
           d="m 3.03125,0.125 c -0.867188,0 -1.5,-0.285156 -1.90625,-0.859375 C 0.726562,-1.316406 0.53125,-2.1875 0.53125,-3.34375 c 0,-2.363281 0.832031,-3.546875 2.5,-3.546875 0.507812,0 0.929688,0.09375 1.265625,0.28125 0.332031,0.179687 0.609375,0.476563 0.828125,0.890625 h 0.015625 c 0,-0.125 0.00391,-0.335938 0.015625,-0.640625 0.019531,-0.300781 0.039062,-0.460937 0.0625,-0.484375 H 6.296875 C 6.265625,-6.601562 6.25,-5.988281 6.25,-5 V 2.65625 H 5.125 v -2.75 L 5.15625,-1.109375 H 5.140625 C 4.921875,-0.660156 4.644531,-0.34375 4.3125,-0.15625 3.976562,0.03125 3.550781,0.125 3.03125,0.125 Z M 5.125,-3.46875 c 0,-0.875 -0.148438,-1.523438 -0.4375,-1.953125 C 4.40625,-5.847656 3.953125,-6.0625 3.328125,-6.0625 c -0.574219,0 -0.984375,0.214844 -1.234375,0.640625 -0.25,0.429687 -0.375,1.105469 -0.375,2.03125 0,0.949219 0.125,1.625 0.375,2.03125 C 2.34375,-0.953125 2.75,-0.75 3.3125,-0.75 c 0.632812,0 1.09375,-0.222656 1.375,-0.671875 C 4.976562,-1.878906 5.125,-2.5625 5.125,-3.46875 Z m 0,0"
           id="path5" />
      </g>
      <g
         id="glyph-0-2">
        <path
           d="m 0.96875,0 v -0.953125 h 2.25 v -6.78125 L 1.234375,-6.3125 V -7.375 L 3.3125,-8.796875 h 1.03125 v 7.84375 H 6.484375 V 0 Z m 0,0"
           id="path8" />
      </g>
      <g
         id="glyph-0-3">
        <path
           d="M 7.265625,0 4.984375,-3.65625 H 2.25 V 0 H 1.046875 V -8.796875 H 5.1875 c 0.988281,0 1.753906,0.226563 2.296875,0.671875 0.539063,0.4375 0.8125,1.054688 0.8125,1.84375 0,0.648438 -0.195313,1.195312 -0.578125,1.640625 -0.375,0.449219 -0.898438,0.730469 -1.5625,0.84375 L 8.640625,0 Z M 7.09375,-6.28125 c 0,-0.507812 -0.171875,-0.894531 -0.515625,-1.15625 -0.34375,-0.269531 -0.84375,-0.40625 -1.5,-0.40625 H 2.25 v 3.25 h 2.875 c 0.625,0 1.109375,-0.144531 1.453125,-0.4375 0.34375,-0.300781 0.515625,-0.71875 0.515625,-1.25 z m 0,0"
           id="path11" />
      </g>
      <g
         id="glyph-0-4">
        <path
           d="m 0.640625,0 v -0.796875 c 0.21875,-0.488281 0.476563,-0.914063 0.78125,-1.28125 0.300781,-0.375 0.617187,-0.710937 0.953125,-1.015625 0.34375,-0.300781 0.679688,-0.582031 1.015625,-0.84375 0.332031,-0.257812 0.628906,-0.515625 0.890625,-0.765625 0.269531,-0.257813 0.488281,-0.53125 0.65625,-0.8125 0.164062,-0.289063 0.25,-0.613281 0.25,-0.96875 0,-0.476563 -0.148438,-0.851563 -0.4375,-1.125 -0.28125,-0.269531 -0.671875,-0.40625 -1.171875,-0.40625 -0.480469,0 -0.875,0.132813 -1.1875,0.390625 -0.3125,0.261719 -0.496094,0.632812 -0.546875,1.109375 L 0.6875,-6.625 c 0.082031,-0.707031 0.378906,-1.269531 0.890625,-1.6875 0.519531,-0.414062 1.1875,-0.625 2,-0.625 0.882813,0 1.566406,0.214844 2.046875,0.640625 0.476562,0.417969 0.71875,1.011719 0.71875,1.78125 0,0.335937 -0.078125,0.671875 -0.234375,1.015625 -0.15625,0.335938 -0.390625,0.671875 -0.703125,1.015625 -0.3125,0.335937 -0.902344,0.855469 -1.765625,1.5625 -0.480469,0.386719 -0.867187,0.742187 -1.15625,1.0625 C 2.203125,-1.546875 2,-1.242188 1.875,-0.953125 H 6.46875 V 0 Z m 0,0"
           id="path14" />
      </g>
      <g
         id="glyph-0-5">
        <path
           d="m 6.546875,-2.4375 c 0,0.8125 -0.261719,1.445312 -0.78125,1.890625 C 5.253906,-0.0976562 4.519531,0.125 3.5625,0.125 2.675781,0.125 1.96875,-0.0703125 1.4375,-0.46875 0.90625,-0.875 0.585938,-1.472656 0.484375,-2.265625 L 1.65625,-2.375 c 0.144531,1.042969 0.78125,1.5625 1.90625,1.5625 0.570312,0 1.019531,-0.132812 1.34375,-0.40625 0.320312,-0.28125 0.484375,-0.695312 0.484375,-1.25 0,-0.476562 -0.1875,-0.851562 -0.5625,-1.125 C 4.460938,-3.863281 3.929688,-4 3.234375,-4 H 2.59375 v -0.96875 h 0.625 c 0.613281,0 1.085938,-0.132812 1.421875,-0.40625 0.34375,-0.269531 0.515625,-0.640625 0.515625,-1.109375 0,-0.46875 -0.140625,-0.835937 -0.421875,-1.109375 C 4.460938,-7.875 4.050781,-8.015625 3.5,-8.015625 c -0.492188,0 -0.890625,0.132813 -1.203125,0.390625 -0.304687,0.25 -0.480469,0.609375 -0.53125,1.078125 l -1.125,-0.09375 c 0.082031,-0.71875 0.378906,-1.28125 0.890625,-1.6875 0.519531,-0.40625 1.179688,-0.609375 1.984375,-0.609375 0.882813,0 1.570313,0.210938 2.0625,0.625 0.488281,0.40625 0.734375,0.976562 0.734375,1.703125 0,0.5625 -0.15625,1.023437 -0.46875,1.375 -0.3125,0.355469 -0.773438,0.59375 -1.375,0.71875 V -4.5 C 5.125,-4.425781 5.632812,-4.203125 6,-3.828125 6.363281,-3.460938 6.546875,-3 6.546875,-2.4375 Z m 0,0"
           id="path17" />
      </g>
      <g
         id="glyph-0-6">
        <path
           d="M 5.5,-2 V 0 H 4.4375 V -2 H 0.296875 v -0.875 l 4.03125,-5.921875 H 5.5 V -2.875 H 6.734375 V -2 Z M 4.4375,-2.875 v -4.65625 c -0.09375,0.179688 -0.171875,0.328125 -0.234375,0.453125 -0.0625,0.117187 -0.121094,0.210937 -0.171875,0.28125 L 2,-3.8125 C 1.882812,-3.632812 1.660156,-3.320312 1.328125,-2.875 Z m 0,0"
           id="path20" />
      </g>
      <g
         id="glyph-0-7">
        <path
           d="m 6.578125,-2.875 c 0,0.9375 -0.277344,1.671875 -0.828125,2.203125 C 5.195312,-0.140625 4.429688,0.125 3.453125,0.125 2.628906,0.125 1.96875,-0.0507812 1.46875,-0.40625 c -0.5,-0.363281 -0.820312,-0.882812 -0.953125,-1.5625 l 1.140625,-0.125 c 0.226562,0.867188 0.835938,1.296875 1.828125,1.296875 0.601563,0 1.070313,-0.179687 1.40625,-0.546875 0.34375,-0.363281 0.515625,-0.863281 0.515625,-1.5 0,-0.550781 -0.171875,-1 -0.515625,-1.34375 C 4.546875,-4.53125 4.082031,-4.703125 3.5,-4.703125 c -0.304688,0 -0.585938,0.054687 -0.84375,0.15625 C 2.394531,-4.453125 2.132812,-4.289062 1.875,-4.0625 H 0.765625 L 1.0625,-8.796875 h 5 V -7.84375 H 2.09375 L 1.921875,-5.0625 c 0.488281,-0.375 1.09375,-0.5625 1.8125,-0.5625 0.863281,0 1.550781,0.257812 2.0625,0.765625 0.519531,0.511719 0.78125,1.171875 0.78125,1.984375 z m 0,0"
           id="path23" />
      </g>
      <g
         id="glyph-0-8">
        <path
           d="m 6.546875,-2.875 c 0,0.929688 -0.25,1.664062 -0.75,2.203125 -0.5,0.53125 -1.195313,0.796875 -2.078125,0.796875 -1,0 -1.761719,-0.367188 -2.28125,-1.109375 -0.523438,-0.738281 -0.78125,-1.8125 -0.78125,-3.21875 0,-1.519531 0.269531,-2.6875 0.8125,-3.5 0.539062,-0.820313 1.316406,-1.234375 2.328125,-1.234375 1.332031,0 2.171875,0.601562 2.515625,1.796875 l -1.078125,0.1875 c -0.21875,-0.707031 -0.703125,-1.0625 -1.453125,-1.0625 -0.636719,0 -1.132812,0.296875 -1.484375,0.890625 -0.355469,0.59375 -0.53125,1.460938 -0.53125,2.59375 C 1.972656,-4.90625 2.257812,-5.191406 2.625,-5.390625 3,-5.585938 3.425781,-5.6875 3.90625,-5.6875 c 0.8125,0 1.453125,0.257812 1.921875,0.765625 0.476563,0.5 0.71875,1.183594 0.71875,2.046875 z M 5.40625,-2.828125 c 0,-0.632813 -0.15625,-1.125 -0.46875,-1.46875 -0.3125,-0.351563 -0.746094,-0.53125 -1.296875,-0.53125 -0.53125,0 -0.960937,0.15625 -1.28125,0.46875 C 2.035156,-4.054688 1.875,-3.632812 1.875,-3.09375 c 0,0.679688 0.164062,1.234375 0.5,1.671875 0.34375,0.429687 0.773438,0.640625 1.296875,0.640625 0.539063,0 0.960937,-0.179688 1.265625,-0.546875 0.3125,-0.363281 0.46875,-0.863281 0.46875,-1.5 z m 0,0"
           id="path26" />
      </g>
    </g>
  </defs>
  <path
     fill-rule="evenodd"
     fill="#ffffff"
     fill-opacity="1"
     stroke-width="2"
     stroke-linecap="butt"
     stroke-linejoin="miter"
     stroke="#000000"
     stroke-opacity="1"
     stroke-miterlimit="10"
     d="m 76.390782,102.95391 c 0,8.501 -6.889776,15.39078 -15.390782,15.39078 -8.501005,0 -15.390781,-6.88978 -15.390781,-15.39078 0,-8.501009 6.889776,-15.390783 15.390781,-15.390783 8.501006,0 15.390782,6.889774 15.390782,15.390783"
     id="path35" />
  <path
     fill="none"
     stroke-width="2"
     stroke-linecap="butt"
     stroke-linejoin="miter"
     stroke="#000000"
     stroke-opacity="1"
     stroke-miterlimit="10"
     d="M 140,26 H 61 v 61.563127"
     id="path39"
     sodipodi:nodetypes="ccc" />
  <path
     fill="none"
     stroke-width="2"
     stroke-linecap="butt"
     stroke-linejoin="miter"
     stroke="#000000"
     stroke-opacity="1"
     stroke-miterlimit="10"
     d="M 247,51.651302 V 26 H 140"
     id="path41"
     sodipodi:nodetypes="ccc" />
  <path
     fill="none"
     stroke-width="2"
     stroke-linecap="butt"
     stroke-linejoin="miter"
     stroke="#000000"
     stroke-opacity="1"
     stroke-miterlimit="10"
     d="m 57.5,74 3.5,-7 3.500002,7"
     id="path107" />
  <path
     fill="none"
     stroke-width="2"
     stroke-linecap="butt"
     stroke-linejoin="miter"
     stroke="#000000"
     stroke-opacity="1"
     stroke-miterlimit="10"
     d="m 61,118.34469 v 66.69339 l 186,0.48297 V 165"
     id="path121"
     sodipodi:nodetypes="cccc" />
  <path
     fill="none"
     stroke-width="2"
     stroke-linecap="butt"
     stroke-linejoin="miter"
     stroke="#000000"
     stroke-opacity="1"
     stroke-miterlimit="10"
     d="M 76.390782,102.95391 H 45.609219"
     id="path123" />
  <text
     xml:space="preserve"
     style="font-style:normal;font-variant:normal;font-weight:normal;font-stretch:normal;font-size:16px;line-height:1.25;font-family:sans-serif;-inkscape-font-specification:'sans-serif, Normal';font-variant-ligatures:normal;font-variant-caps:normal;font-variant-numeric:normal;font-variant-east-asian:normal;letter-spacing:0px;word-spacing:0px;writing-mode:lr-tb"
     x="90"
     y="115"
     id="text1356"><tspan
       sodipodi:role="line"
       id="tspan1354"
       x="90"
       y="115">G1</tspan></text>
  <text
     xml:space="preserve"
     style="font-size:16px;line-height:1.25;font-family:sans-serif;-inkscape-font-specification:'sans-serif, Normal';letter-spacing:0px;word-spacing:0px;writing-mode:lr-tb"
     x="35"
     y="75"
     id="text1416"><tspan
       sodipodi:role="line"
       id="tspan1414"
       x="35"
       y="75"
       style="font-style:normal;font-variant:normal;font-weight:normal;font-stretch:normal;font-size:16px;font-family:Carlito;-inkscape-font-specification:'Carlito, Normal';font-variant-ligatures:normal;font-variant-position:normal;font-variant-caps:normal;font-variant-numeric:normal;font-variant-east-asian:normal">Iq1</tspan></text>
  <g
     inkscape:groupmode="layer"
     id="layer1"
     inkscape:label="Layer 1"
     sodipodi:insensitive="true" />
  <g
     inkscape:groupmode="layer"
     id="layer2"
     inkscape:label="Layer 2" />
  <path
     fill-rule="evenodd"
     fill="#ffffff"
     fill-opacity="1"
     stroke-width="2"
     stroke-linecap="butt"
     stroke-linejoin="miter"
     stroke="#000000"
     stroke-opacity="1"
     stroke-miterlimit="10"
     d="m 125.26052,85 v 30.78157 H 115 V 85 Z m 0,0"
     id="path37" />
  <path
     fill="none"
     stroke-width="5.99999"
     stroke-linecap="butt"
     stroke-linejoin="miter"
     stroke="#078dff"
     stroke-opacity="1"
     stroke-miterlimit="10"
     d="m 165,165 v 18.98798"
     id="path43"
     style="stroke:#000000;stroke-width:2;stroke-dasharray:none;stroke-opacity:1" />
  <path
     fill="none"
     stroke-width="5.99999"
     stroke-linecap="butt"
     stroke-linejoin="miter"
     stroke="#078dff"
     stroke-opacity="1"
     stroke-miterlimit="10"
     d="M 165,82.915835 V 134.21844"
     id="path45"
     style="stroke:#000000;stroke-width:2;stroke-dasharray:none;stroke-opacity:1" />
  <path
     fill="none"
     stroke-width="5.99999"
     stroke-linecap="butt"
     stroke-linejoin="miter"
     stroke="#078dff"
     stroke-opacity="1"
     stroke-miterlimit="10"
     d="M 190.6513,108.56714 H 165"
     id="path47"
     style="stroke:#000000;stroke-width:2;stroke-dasharray:none;stroke-opacity:1" />
  <path
     fill="none"
     stroke-width="2"
     stroke-linecap="butt"
     stroke-linejoin="miter"
     stroke="#000000"
     stroke-opacity="1"
     stroke-miterlimit="10"
     d="M 247.08416,83.424849 V 134.21844"
     id="path49" />
  <path
     fill="none"
     stroke-width="5.99999"
     stroke-linecap="butt"
     stroke-linejoin="miter"
     stroke="#078dff"
     stroke-opacity="1"
     stroke-miterlimit="10"
     d="m 221.43286,108.56714 25.6513,0.25451"
     id="path51"
     style="stroke:#000000;stroke-width:2;stroke-dasharray:none;stroke-opacity:1" />
  <path
     fill-rule="evenodd"
     fill="#000000"
     fill-opacity="1"
     stroke-width="2"
     stroke-linecap="butt"
     stroke-linejoin="miter"
     stroke="#000000"
     stroke-opacity="1"
     stroke-miterlimit="10"
     d="m 166.02605,108.56714 c 0,1.36873 -2.05211,1.36873 -2.05211,0 0,-1.36873 2.05211,-1.36873 2.05211,0"
     id="path53" />
  <path
     fill-rule="evenodd"
     fill="#000000"
     fill-opacity="1"
     stroke-width="2"
     stroke-linecap="butt"
     stroke-linejoin="miter"
     stroke="#000000"
     stroke-opacity="1"
     stroke-miterlimit="10"
     d="m 248.11022,108.56714 c 0,1.36873 -2.05211,1.36873 -2.05211,0 0,-1.36873 2.05211,-1.36873 2.05211,0"
     id="path55" />
  <path
     fill-rule="evenodd"
     fill="#000000"
     fill-opacity="1"
     stroke-width="2"
     stroke-linecap="butt"
     stroke-linejoin="miter"
     stroke="#000000"
     stroke-opacity="1"
     stroke-miterlimit="10"
     d="m 166,26 c 0,1.368733 -2.05211,1.368733 -2.05211,0 0,-1.368733 2.05211,-1.368733 2.05211,0"
     id="path57" />
  <path
     fill-rule="evenodd"
     fill="#000000"
     fill-opacity="1"
     stroke-width="2"
     stroke-linecap="butt"
     stroke-linejoin="miter"
     stroke="#000000"
     stroke-opacity="1"
     stroke-miterlimit="10"
     d="m 166.02605,185 c 0,1.36873 -2.05211,1.36873 -2.05211,0 0,-1.36874 2.05211,-1.36874 2.05211,0"
     id="path59" />
  <path
     fill="none"
     stroke-width="5.99999"
     stroke-linecap="butt"
     stroke-linejoin="miter"
     stroke="#078dff"
     stroke-opacity="1"
     stroke-miterlimit="10"
     d="M 165,27 V 51.62525"
     id="path109"
     style="stroke:#000000;stroke-width:2;stroke-dasharray:none;stroke-opacity:1" />
  <path
     fill-rule="evenodd"
     fill="#000000"
     fill-opacity="1"
     stroke-width="2"
     stroke-linecap="butt"
     stroke-linejoin="miter"
     stroke="#000000"
     stroke-opacity="1"
     stroke-miterlimit="10"
     d="m 121,26 c 0,1.368733 -2.05211,1.368733 -2.05211,0 0,-1.368733 2.05211,-1.368733 2.05211,0"
     id="path57-3" />
  <path
     fill="none"
     stroke-width="5.99999"
     stroke-linecap="butt"
     stroke-linejoin="miter"
     stroke="#078dff"
     stroke-opacity="1"
     stroke-miterlimit="10"
     d="M 120,27 V 84"
     id="path109-5"
     style="stroke:#000000;stroke-width:2;stroke-dasharray:none;stroke-opacity:1"
     sodipodi:nodetypes="cc" />
  <path
     fill-rule="evenodd"
     fill="#ffffff"
     fill-opacity="1"
     stroke-width="2"
     stroke-linecap="butt"
     stroke-linejoin="miter"
     stroke="#000000"
     stroke-opacity="1"
     stroke-miterlimit="10"
     d="m 190.6513,103.43688 h 30.78156 V 113.6974 H 190.6513 Z m 0,0"
     id="path111" />
  <path
     fill-rule="evenodd"
     fill="#ffffff"
     fill-opacity="1"
     stroke-width="2"
     stroke-linecap="butt"
     stroke-linejoin="miter"
     stroke="#000000"
     stroke-opacity="1"
     stroke-miterlimit="10"
     d="m 159.86974,52.134272 h 10.26052 v 30.781563 h -10.26052 z m 0,0"
     id="path113" />
  <path
     fill-rule="evenodd"
     fill="#ffffff"
     fill-opacity="1"
     stroke-width="2"
     stroke-linecap="butt"
     stroke-linejoin="miter"
     stroke="#000000"
     stroke-opacity="1"
     stroke-miterlimit="10"
     d="m 241.9539,52.134272 h 10.26053 V 82.915835 H 241.9539 Z m 0,0"
     id="path115" />
  <path
     fill-rule="evenodd"
     fill="#ffffff"
     fill-opacity="1"
     stroke-width="2"
     stroke-linecap="butt"
     stroke-linejoin="miter"
     stroke="#000000"
     stroke-opacity="1"
     stroke-miterlimit="10"
     d="m 159.86974,134.21844 h 10.26052 V 165 h -10.26052 z m 0,0"
     id="path117" />
  <path
     fill-rule="evenodd"
     fill="#ffffff"
     fill-opacity="1"
     stroke-width="2"
     stroke-linecap="butt"
     stroke-linejoin="miter"
     stroke="#000000"
     stroke-opacity="1"
     stroke-miterlimit="10"
     d="m 241.9539,134.21844 h 10.26053 V 165 H 241.9539 Z m 0,0"
     id="path119" />
  <text
     xml:space="preserve"
     style="font-style:normal;font-variant:normal;font-weight:normal;font-stretch:normal;font-size:16px;line-height:1.25;font-family:sans-serif;-inkscape-font-specification:'sans-serif, Normal';font-variant-ligatures:normal;font-variant-caps:normal;font-variant-numeric:normal;font-variant-east-asian:normal;letter-spacing:0px;word-spacing:0px;writing-mode:lr-tb"
     x="134.08188"
     y="74.196457"
     id="text1410"><tspan
       sodipodi:role="line"
       id="tspan1408"
       x="134.08188"
       y="74.196457">G3</tspan></text>
  <text
     xml:space="preserve"
     style="font-style:normal;font-variant:normal;font-weight:normal;font-stretch:normal;font-size:16px;line-height:1.25;font-family:sans-serif;-inkscape-font-specification:'sans-serif, Normal';font-variant-ligatures:normal;font-variant-caps:normal;font-variant-numeric:normal;font-variant-east-asian:normal;letter-spacing:0px;word-spacing:0px;writing-mode:lr-tb"
     x="215.47307"
     y="75.326721"
     id="text1410-0"><tspan
       sodipodi:role="line"
       id="tspan1408-2"
       x="215.47307"
       y="75.326721">G5</tspan></text>
  <text
     xml:space="preserve"
     style="font-style:normal;font-variant:normal;font-weight:normal;font-stretch:normal;font-size:16px;line-height:1.25;font-family:sans-serif;-inkscape-font-specification:'sans-serif, Normal';font-variant-ligatures:normal;font-variant-caps:normal;font-variant-numeric:normal;font-variant-east-asian:normal;letter-spacing:0px;word-spacing:0px;writing-mode:lr-tb"
     x="215.47307"
     y="155.48297"
     id="text1410-3"><tspan
       sodipodi:role="line"
       id="tspan1408-7"
       x="215.47307"
       y="155.48297">G4</tspan></text>
  <text
     xml:space="preserve"
     style="font-style:normal;font-variant:normal;font-weight:normal;font-stretch:normal;font-size:16px;line-height:1.25;font-family:sans-serif;-inkscape-font-specification:'sans-serif, Normal';font-variant-ligatures:normal;font-variant-caps:normal;font-variant-numeric:normal;font-variant-east-asian:normal;letter-spacing:0px;word-spacing:0px;writing-mode:lr-tb"
     x="135.47307"
     y="155.48297"
     id="text1410-5"><tspan
       sodipodi:role="line"
       id="tspan1408-9"
       x="135.47307"
       y="155.48297">G2</tspan></text>
  <text
     xml:space="preserve"
     style="font-style:normal;font-variant:normal;font-weight:normal;font-stretch:normal;font-size:16px;line-height:1.25;font-family:sans-serif;-inkscape-font-specification:'sans-serif, Normal';font-variant-ligatures:normal;font-variant-caps:normal;font-variant-numeric:normal;font-variant-east-asian:normal;letter-spacing:0px;word-spacing:0px;writing-mode:lr-tb"
     x="195.47307"
     y="130.32672"
     id="text1410-2"><tspan
       sodipodi:role="line"
       id="tspan1408-28"
       x="195.47307"
       y="130.32672">G6</tspan></text>
  <text
     xml:space="preserve"
     style="font-weight:bold;font-size:16px;line-height:1.25;font-family:sans-serif;-inkscape-font-specification:'sans-serif, Bold';letter-spacing:0px;word-spacing:0px;writing-mode:lr-tb"
     x="155"
     y="20"
     id="text223"><tspan
       sodipodi:role="line"
       id="tspan221"
       x="155"
       y="20">φ1</tspan></text>
  <text
     xml:space="preserve"
     style="font-weight:bold;font-size:16px;line-height:1.25;font-family:sans-serif;-inkscape-font-specification:'sans-serif, Bold';letter-spacing:0px;word-spacing:0px;writing-mode:lr-tb"
     x="136.78557"
     y="110.48297"
     id="text223-3"><tspan
       sodipodi:role="line"
       id="tspan221-6"
       x="136.78557"
       y="110.48297">φ2</tspan></text>
  <text
     xml:space="preserve"
     style="font-weight:bold;font-size:16px;line-height:1.25;font-family:sans-serif;-inkscape-font-specification:'sans-serif, Bold';letter-spacing:0px;word-spacing:0px;writing-mode:lr-tb"
     x="251.78557"
     y="110.48297"
     id="text223-7"><tspan
       sodipodi:role="line"
       id="tspan221-5"
       x="251.78557"
       y="110.48297">φ3</tspan></text>
  <path
     fill-rule="evenodd"
     fill="#000000"
     fill-opacity="1"
     stroke-width="2"
     stroke-linecap="butt"
     stroke-linejoin="miter"
     stroke="#000000"
     stroke-opacity="1"
     stroke-miterlimit="10"
     d="m 119,185 c 0,-1.36873 2.0521,-1.36873 2.0521,0 0,1.36873 -2.0521,1.36873 -2.0521,0"
     id="path57-6" />
  <path
     fill="none"
     stroke-width="5.99999"
     stroke-linecap="butt"
     stroke-linejoin="miter"
     stroke="#078dff"
     stroke-opacity="1"
     stroke-miterlimit="10"
     d="M 120,184 V 115"
     id="path109-2"
     style="stroke:#000000;stroke-width:2;stroke-dasharray:none;stroke-opacity:1" />
  <text
     xml:space="preserve"
     style="font-weight:bold;font-size:16px;line-height:1.25;font-family:sans-serif;-inkscape-font-specification:'sans-serif, Bold';letter-spacing:0px;word-spacing:0px;writing-mode:lr-tb"
     x="150"
     y="200"
     id="text223-3-9"><tspan
       sodipodi:role="line"
       id="tspan221-6-1"
       x="150"
       y="200">φ=0</tspan></text>
</svg>
