<?xml version="1.0" encoding="UTF-8" standalone="no"?>
<!-- Created with Inkscape (http://www.inkscape.org/) -->

<svg
   width="210mm"
   height="297mm"
   viewBox="0 0 210 297"
   version="1.1"
   id="svg5"
   sodipodi:docname="gleichrichtungSpannungen.svg"
   inkscape:version="1.2.2 (b0a8486541, 2022-12-01)"
   xmlns:inkscape="http://www.inkscape.org/namespaces/inkscape"
   xmlns:sodipodi="http://sodipodi.sourceforge.net/DTD/sodipodi-0.dtd"
   xmlns="http://www.w3.org/2000/svg"
   xmlns:svg="http://www.w3.org/2000/svg">
  <sodipodi:namedview
     id="namedview7"
     pagecolor="#ffffff"
     bordercolor="#666666"
     borderopacity="1.0"
     inkscape:showpageshadow="2"
     inkscape:pageopacity="0.0"
     inkscape:pagecheckerboard="0"
     inkscape:deskcolor="#d1d1d1"
     inkscape:document-units="mm"
     showgrid="true"
     inkscape:zoom="2.0989207"
     inkscape:cx="160.55871"
     inkscape:cy="415.2134"
     inkscape:current-layer="layer4">
    <inkscape:grid
       type="xygrid"
       id="grid63" />
  </sodipodi:namedview>
  <defs
     id="defs2" />
  <g
     id="g378"
     inkscape:export-filename="../12_4_et_elektronik/sinuswelle_12v.png"
     inkscape:export-xdpi="96"
     inkscape:export-ydpi="96">
    <path
       style="fill:none;stroke:#000000;stroke-width:0.79375;stroke-linejoin:round;stop-color:#000000"
       d="m 21.1667,58.2083 c 0.1003,1.8632 0.2005,-2.74 0.3008,-0.8893 0.1003,1.8507 0.2006,-2.726 0.3009,-0.8878 0.1003,1.8383 0.2006,-2.7103 0.3009,-0.8846 0.1002,1.8258 0.2005,-2.6932 0.3008,-0.8799 0.1003,1.8133 0.2006,-2.6745 0.3009,-0.8737 0.1003,1.8009 0.2006,-2.6542 0.3008,-0.8658 0.1003,1.7883 0.2006,-2.6325 0.3009,-0.8566 0.1003,1.7759 0.2006,-2.6091 0.3009,-0.8457 0.1003,1.7635 0.2006,-2.5843 0.3008,-0.8333 0.1003,1.751 0.2006,-2.5581 0.3009,-0.8196 0.1003,1.7385 0.2006,-2.5304 0.3009,-0.8043 0.1003,1.7261 0.2005,-2.5013 0.3008,-0.7877 0.1003,1.7137 0.2006,-2.4707 0.3009,-0.7695 0.1003,1.7011 0.2006,-2.4389 0.3009,-0.7502 0.1002,1.6887 0.2005,-2.4056 0.3008,-0.7294 0.1003,1.6762 0.2006,-2.3711 0.3009,-0.7073 0.1003,1.6637 0.2006,-2.3354 0.3009,-0.6841 0.1002,1.6513 0.2005,-2.2984 0.3008,-0.6596 0.1003,1.6388 0.2006,-2.2603 0.3009,-0.6339 0.1003,1.6263 0.2006,-2.2211 0.3008,-0.6072 0.1003,1.6139 0.2006,-2.1807 0.3009,-0.5793 0.1003,1.6015 0.2006,-2.1394 0.3009,-0.5504 0.1003,1.589 0.2006,-2.0971 0.3008,-0.5206 0.1003,1.5765 0.2006,-2.0539 0.3009,-0.4898 0.1003,1.5641 0.2006,-2.0098 0.3009,-0.4582 0.1003,1.5516 0.2005,-1.9649 0.3008,-0.4257 0.1003,1.5391 0.2006,-1.9193 0.3009,-0.3926 0.1003,1.5267 0.2006,-1.8729 0.3009,-0.3587 0.1002,1.5142 0.2005,-1.8259 0.3008,-0.3241 0.1003,1.5017 0.2006,-1.7784 0.3009,-0.2891 0.1003,1.4893 0.2006,-1.7303 0.3008,-0.2534 0.1003,1.4768 0.2006,-1.6818 0.3009,-0.2174 0.1003,1.4643 0.2006,-1.6329 0.3009,-0.181 0.1003,1.4519 0.2006,-1.5837 0.3008,-0.1443 0.1003,1.4395 0.2006,-1.5341 0.3009,-0.1072 0.1003,1.427 0.2006,-1.4845 0.3009,-0.07 0.1003,1.4145 0.2005,-1.4347 0.3008,-0.0327 0.1003,1.402 0.2006,-1.3849 0.3009,0.0047 0.1003,1.3895 0.2006,-1.3351 0.3009,0.042 0.1003,1.3771 0.2005,-1.2853 0.3008,0.0794 0.1003,1.3646 0.2006,-1.2357 0.3009,0.1164 0.1003,1.3522 0.2006,-1.1862 0.3009,0.1535 0.1002,1.3397 0.2005,-1.1372 0.3008,0.1901 0.1003,1.3273 0.2006,-1.0883 0.3009,0.2265 0.1003,1.3148 0.2006,-1.04 0.3008,0.2624 0.1003,1.3023 0.2006,-0.992 0.3009,0.2979 0.1003,1.2898 0.2006,-0.9446 0.3009,0.3328 0.1003,1.2774 0.2006,-0.8978 0.3008,0.3672 0.1003,1.265 0.2006,-0.8516 0.3009,0.4009 0.1003,1.2525 0.2006,-0.8061 0.3009,0.4339 0.1003,1.2401 0.2005,-0.7614 0.3008,0.4662 0.1003,1.2276 0.2006,-0.7175 0.3009,0.4976 0.1003,1.2151 0.2006,-0.6745 0.3009,0.5281 0.1002,1.2027 0.2005,-0.6324 0.3008,0.5578 0.1003,1.1901 0.2006,-0.5914 0.3009,0.5863 0.1003,1.1777 0.2006,-0.5513 0.3009,0.614 0.1002,1.1652 0.2005,-0.5124 0.3008,0.6404 0.1003,1.1528 0.2006,-0.4745 0.3009,0.6658 0.1003,1.1404 0.2006,-0.4378 0.3008,0.6901 0.1003,1.1278 0.2006,-0.4024 0.3009,0.713 0.1003,1.1154 0.2006,-0.3683 0.3009,0.7347 0.1003,1.1029 0.2005,-0.3354 0.3008,0.7551 0.1003,1.0905 0.2006,-0.3038 0.3009,0.7742 0.1003,1.078 0.2006,-0.2736 0.3009,0.792 0.1002,1.0655 0.2005,-0.2449 0.3008,0.8082 0.1003,1.0531 0.2006,-0.2175 0.3009,0.8232 0.1003,1.0406 0.2006,-0.1916 0.3009,0.8366 0.1002,1.0281 0.2005,-0.1672 0.3008,0.8485 0.1003,1.0157 0.2006,-0.1442 0.3009,0.859 0.1003,1.0033 0.2006,-0.1228 0.3008,0.868 0.1003,0.9908 0.2006,-0.103 0.3009,0.8754 0.1003,0.9783 0.2006,-0.0847 0.3009,0.8812 0.1003,0.9658 0.2005,-0.0678 0.3008,0.8856 0.1003,0.9533 0.2006,-0.0527 0.3009,0.8883 0.1003,0.9409 0.2006,-0.039 0.3009,0.8894 0.1003,0.9285 0.2005,-0.0269 0.3008,0.8891 0.1003,0.916 0.2006,-0.0164 0.3009,0.8871 0.1003,0.9036 0.2006,-0.0074 0.3009,0.8836 0.1002,0.8911 0.2005,-10e-5 0.3008,0.8785 0.1003,0.8786 0.2006,0.0057 0.3009,0.8719 0.1003,0.8661 0.2006,0.01 0.3008,0.8637 0.1003,0.8537 0.2006,0.0127 0.3009,0.8539 0.1003,0.8413 0.2006,0.014 0.3009,0.8428 0.1003,0.8288 0.2006,0.0138 0.3008,0.8301 0.1003,0.8163 0.2006,0.012 0.3009,0.8158 0.1003,0.8039 0.2006,0.0089 0.3009,0.8003 0.1003,0.7914 0.2005,0.0043 0.3008,0.7833 0.1003,0.7789 0.2006,-0.0016 0.3009,0.7648 0.1003,0.7665 0.2006,-0.0089 0.3009,0.7451 0.1002,0.754 0.2005,-0.0175 0.3008,0.724 0.1003,0.7415 0.2006,-0.0274 0.3009,0.7017 0.1003,0.729 0.2006,-0.0386 0.3009,0.678 0.1002,0.7166 0.2005,-0.0508 0.3008,0.6533 0.1003,0.7041 0.2006,-0.0643 0.3009,0.6273 0.1003,0.6917 0.2006,-0.0789 0.3008,0.6003 0.1003,0.6792 0.2006,-0.0945 0.3009,0.5722 0.1003,0.6668 0.2006,-0.1112 0.3009,0.5431 0.1003,0.6542 0.2006,-0.1289 0.3008,0.5129 0.1003,0.6419 0.2006,-0.1473 0.3009,0.482 0.1003,0.6294 0.2006,-0.1667 0.3009,0.4502 0.1003,0.6169 0.2005,-0.187 0.3008,0.4175 0.1003,0.6044 0.2006,-0.2078 0.3009,0.3841 0.1003,0.592 0.2006,-0.2294 0.3009,0.3501 0.1002,0.5795 0.2005,-0.2516 0.3008,0.3155 0.1003,0.567 0.2006,-0.2744 0.3009,0.2802 0.1003,0.5545 0.2006,-0.2977 0.3009,0.2445 0.1002,0.5421 0.2005,-0.3214 0.3008,0.2083 0.1003,0.5296 0.2006,-0.3454 0.3009,0.1718 0.1003,0.5172 0.2006,-0.3697 0.3008,0.135 0.1003,0.5047 0.2006,-0.3943 0.3009,0.0979 0.1003,0.4923 0.2006,-0.4191 0.3009,0.0607 0.1003,0.4799 0.2005,-0.4439 0.3008,0.0234 0.1003,0.4674 0.2006,-0.4689 0.3009,-0.014 0.1003,0.4549 0.2006,-0.4938 0.3009,-0.0514 0.1002,0.4424 0.2005,-0.5186 0.3008,-0.0886 0.1003,0.4299 0.2006,-0.5433 0.3009,-0.1258 0.1003,0.4175 0.2006,-0.5677 0.3009,-0.1626 0.1002,0.405 0.2005,-0.5918 0.3008,-0.1993 0.1003,0.3926 0.2006,-0.6156 0.3009,-0.2354 0.1003,0.3801 0.2006,-0.639 0.3008,-0.2714 0.1003,0.3677 0.2006,-0.6618 0.3009,-0.3066 0.1003,0.3551 0.2006,-0.6843 0.3009,-0.3415 0.1003,0.3427 0.2006,-0.706 0.3008,-0.3757 0.1003,0.3302 0.2006,-0.7271 0.3009,-0.4093 0.1003,0.3178 0.2006,-0.7474 0.3009,-0.442 0.1003,0.3053 0.2005,-0.767 0.3008,-0.4741 0.1003,0.2928 0.2006,-0.7858 0.3009,-0.5053 0.1003,0.2804 0.2006,-0.8036 0.3009,-0.5357 0.1002,0.268 0.2005,-0.8204 0.3008,-0.5649 0.1003,0.2554 0.2006,-0.8364 0.3009,-0.5934 0.1003,0.243 0.2006,-0.8512 0.3009,-0.6207 0.1002,0.2306 0.2005,-0.865 0.3008,-0.6469 0.1003,0.2181 0.2006,-0.8776 0.3009,-0.672 0.1003,0.2057 0.2006,-0.889 0.3008,-0.6958 0.1003,0.1931 0.2006,-0.8993 0.3009,-0.7186 0.1003,0.1807 0.2006,-0.9082 0.3009,-0.7399 0.1003,0.1682 0.2005,-0.9158 0.3008,-0.76 0.1003,0.1557 0.2006,-0.9221 0.3009,-0.7788 0.1003,0.1433 0.2006,-0.927 0.3009,-0.7962 0.1002,0.1309 0.2005,-0.9305 0.3008,-0.8121 0.1003,0.1184 0.2006,-0.9326 0.3009,-0.8266 0.1003,0.1059 0.2006,-0.9332 0.3009,-0.8398 0.1002,0.0935 0.2005,-0.9323 0.3008,-0.8513 0.1003,0.081 0.2006,-0.9299 0.3009,-0.8614 0.1003,0.0686 0.2006,-0.926 0.3008,-0.8699 0.1003,0.0561 0.2006,-0.9206 0.3009,-0.877 0.1003,0.0436 0.2006,-0.9136 0.3009,-0.8825 0.1003,0.0312 0.2006,-0.9051 0.3008,-0.8864 0.1003,0.0187 0.2006,-0.8949 0.3009,-0.8887 0.1003,0.0062 0.2006,-0.8833 0.3009,-0.8895 0.1003,-0.0063 0.2005,-0.8701 0.3008,-0.8888 0.1003,-0.0187 0.2006,-0.8552 0.3009,-0.8864 0.1003,-0.0311 0.2006,-0.8388 0.3009,-0.8824 0.1002,-0.0436 0.2005,-0.8209 0.3008,-0.877 0.1003,-0.0561 0.2006,-0.8014 0.3009,-0.87 0.1003,-0.0685 0.2006,-0.7804 0.3008,-0.8614 0.1003,-0.081 0.2006,-0.7578 0.3009,-0.8513 0.1003,-0.0934 0.2006,-0.7338 0.3009,-0.8397 0.1003,-0.1059 0.2006,-0.7082 0.3008,-0.8266 0.1003,-0.1184 0.2006,-0.6813 0.3009,-0.8122 0.1003,-0.1308 0.2006,-0.6528 0.3009,-0.7961 0.1003,-0.1433 0.2005,-0.623 0.3008,-0.7788 0.1003,-0.1558 0.2006,-0.5918 0.3009,-0.76 0.1003,-0.1683 0.2006,-0.5592 0.3009,-0.74 0.1002,-0.1807 0.2005,-0.5253 0.3008,-0.7185 0.1003,-0.1932 0.2006,-0.4902 0.3009,-0.6959 0.1003,-0.2056 0.2006,-0.4539 0.3009,-0.672 0.1002,-0.218 0.2005,-0.4163 0.3008,-0.6469 0.1003,-0.2305 0.2006,-0.3776 0.3009,-0.6206 0.1003,-0.243 0.2006,-0.3379 0.3008,-0.5934 0.1003,-0.2555 0.2006,-0.297 0.3009,-0.565 0.1003,-0.2679 0.2006,-0.2552 0.3009,-0.5356 0.1003,-0.2804 0.2005,-0.2124 0.3008,-0.5053 0.1003,-0.2929 0.2006,-0.1688 0.3009,-0.4741 0.1003,-0.3053 0.2006,-0.1243 0.3009,-0.4421 0.1003,-0.3178 0.2005,-0.0789 0.3008,-0.4092 0.1003,-0.3303 0.2006,-0.033 0.3009,-0.3757 0.1003,-0.3427 0.2006,0.0137 0.3009,-0.3415 0.1002,-0.3552 0.2005,0.061 0.3008,-0.3067 0.1003,-0.3676 0.2006,0.1088 0.3009,-0.2713 0.1003,-0.3801 0.2006,0.1571 0.3009,-0.2355 0.1002,-0.3925 0.2005,0.2058 0.3008,-0.1992 0.1003,-0.405 0.2006,0.2548 0.3009,-0.1627 0.1003,-0.4174 0.2006,0.3043 0.3008,-0.1257 0.1003,-0.43 0.2006,0.3538 0.3009,-0.0886 0.1003,-0.4425 0.2006,0.4035 0.3009,-0.0514 0.1003,-0.4549 0.2005,0.4533 0.3008,-0.014 0.1003,-0.4674 0.2006,0.5031 0.3009,0.0233 0.1003,-0.4798 0.2006,0.553 0.3009,0.0607 0.1002,-0.4922 0.2005,0.6027 0.3008,0.098 0.1003,-0.5048 0.2006,0.6522 0.3009,0.135 0.1003,-0.5172 0.2006,0.7014 0.3009,0.1718 0.1002,-0.5297 0.2005,0.7504 0.3008,0.2083 0.1003,-0.5421 0.2006,0.7991 0.3009,0.2445 0.1003,-0.5546 0.2006,0.8473 0.3008,0.2802 0.1003,-0.567 0.2006,0.895 0.3009,0.3154 0.1003,-0.5795 0.2006,0.9421 0.3009,0.3501 0.1003,-0.5919 0.2006,0.9886 0.3008,0.3842 0.1003,-0.6045 0.2006,1.0344 0.3009,0.4175 0.1003,-0.6169 0.2006,1.0795 0.3009,0.4502 0.1003,-0.6294 0.2005,1.1238 0.3008,0.4819 0.1003,-0.6418 0.2006,1.1673 0.3009,0.513 0.1003,-0.6543 0.2006,1.2098 0.3009,0.5431 0.1002,-0.6668 0.2005,1.2513 0.3008,0.5721 0.1003,-0.6792 0.2006,1.292 0.3009,0.6003 0.1003,-0.6917 0.2006,1.3315 0.3008,0.6274 0.1003,-0.7042 0.2006,1.3698 0.3009,0.6532 0.1003,-0.7166 0.2006,1.4072 0.3009,0.6781 0.1003,-0.7291 0.2006,1.4432 0.3008,0.7017 0.1003,-0.7416 0.2006,1.478 0.3009,0.724 0.1003,-0.754 0.2006,1.5115 0.3009,0.7451 0.1003,-0.7665 0.2005,1.5437 0.3008,0.7648 0.1003,-0.7789 0.2006,1.5746 0.3009,0.7833 0.1003,-0.7914 0.2006,1.6041 0.3009,0.8002 0.1002,-0.8038 0.2005,1.6322 0.3008,0.8159 0.1003,-0.8163 0.2006,1.6588 0.3009,0.8301 0.1003,-0.8288 0.2006,1.684 0.3009,0.8427 0.1002,-0.8412 0.2005,1.7077 0.3008,0.854 0.1003,-0.8537 0.2006,1.7298 0.3009,0.8637 0.1003,-0.8662 0.2006,1.7505 0.3008,0.8718 0.1003,-0.8786 0.2006,1.7696 0.3009,0.8785 0.1003,-0.891 0.2006,1.7872 0.3009,0.8836 0.1003,-0.9035 0.2005,1.8032 0.3008,0.8872 0.1003,-0.916 0.2006,1.8175 0.3009,0.889 0.1003,-0.9284 0.2006,1.8304 0.3009,0.8895 0.1003,-0.9409 0.2005,1.8417 0.3008,0.8883 0.1003,-0.9534 0.2006,1.8514 0.3009,0.8856 0.1003,-0.9659 0.2006,1.8595 0.3009,0.8812 0.1002,-0.9783 0.2005,1.8662 0.3008,0.8754 0.1003,-0.9908 0.2006,1.8712 0.3009,0.8679 0.1003,-1.0032 0.2006,1.8748 0.3008,0.8591 0.1003,-1.0157 0.2006,1.8767 0.3009,0.8485 0.1003,-1.0281 0.2006,1.8772 0.3009,0.8366 0.1003,-1.0406 0.2006,1.8762 0.3008,0.8232 0.1003,-1.0531 0.2006,1.8738 0.3009,0.8082 0.1003,-1.0655 0.2006,1.87 0.3009,0.792 0.1003,-1.0781 0.2005,1.8646 0.3008,0.7742 0.1003,-1.0905 0.2006,1.858 0.3009,0.7551 0.1003,-1.1029 0.2006,1.8501 0.3009,0.7347 0.1003,-1.1154 0.2005,1.8409 0.3008,0.713 0.1003,-1.1279 0.2006,1.8303 0.3009,0.69 0.1003,-1.1403 0.2006,1.8186 0.3009,0.6658 0.1002,-1.1527 0.2005,1.8057 0.3008,0.6405 0.1003,-1.1653 0.2006,1.7917 0.3009,0.6139 0.1003,-1.1777 0.2006,1.7766 0.3008,0.5864 0.1003,-1.1902 0.2006,1.7604 0.3009,0.5577 0.1003,-1.2026 0.2006,1.7433 0.3009,0.5282 0.1003,-1.2151 0.2006,1.7251 0.3008,0.4976 0.1003,-1.2276 0.2006,1.7062 0.3009,0.4661 0.1003,-1.24 0.2006,1.6864 0.3009,0.434 0.1003,-1.2525 0.2005,1.6658 0.3008,0.4009 0.1003,-1.265 0.2006,1.6446 0.3009,0.3672 0.1003,-1.2774 0.2006,1.6227 0.3009,0.3328 0.1002,-1.2899 0.2005,1.6002 0.3008,0.2979 0.1003,-1.3023 0.2006,1.5772 0.3009,0.2624 0.1003,-1.3148 0.2006,1.5537 0.3008,0.2265 0.1003,-1.3273 0.2006,1.5298 0.3009,0.1901 0.1003,-1.3397 0.2006,1.5056 0.3009,0.1534 0.1003,-1.3522 0.2006,1.4812 0.3008,0.1165 0.1003,-1.3646 0.2006,1.4565 0.3009,0.0794 0.1003,-1.3772 0.2006,1.4316 0.3009,0.042 0.1003,-1.3896 0.2005,1.4067 0.3008,0.0047 0.1,-1.4021 0.201,1.3818 0.301,-0.0327 0.1,-1.4145 0.2,1.3569 0.301,-0.0701 0.1,-1.4269 0.2,1.3323 0.301,-0.1072 0.1,-1.4394 0.2,1.3077 0.3,-0.1442 0.101,-1.4519 0.201,1.2834 0.301,-0.181 0.101,-1.4643 0.201,1.2594 0.301,-0.2174 0.101,-1.4768 0.201,1.2358 0.301,-0.2535 0.1,-1.4892 0.201,1.2127 0.301,-0.289 0.1,-1.5018 0.201,1.19 0.301,-0.3242 0.1,-1.5142 0.2,1.168 0.301,-0.3586 0.1,-1.5267 0.2,1.1465 0.301,-0.3926 0.1,-1.5391 0.2,1.1259 0.3,-0.4257 0.101,-1.5516 0.201,1.1058 0.301,-0.4582 0.101,-1.5641 0.201,1.0867 0.301,-0.4898 0.1,-1.5766 0.201,1.0684 0.301,-0.5206 0.1,-1.589 0.201,1.051 0.301,-0.5504 0.1,-1.6015 0.2,1.0346 0.301,-0.5793 0.1,-1.614 0.2,1.0192 0.301,-0.6072 0.1,-1.6264 0.2,1.0049 0.3,-0.6339 0.101,-1.6389 0.201,0.9917 0.301,-0.6596 0.101,-1.6513 0.201,0.9797 0.301,-0.6841 0.1,-1.6637 0.201,0.9689 0.301,-0.7074 0.1,-1.6762 0.201,0.9593 0.301,-0.7294 0.1,-1.6886 0.2,0.951 0.301,-0.7501 0.1,-1.7012 0.2,0.944 0.301,-0.7696 0.1,-1.7136 0.2,0.9385 0.3,-0.7876 0.101,-1.7261 0.201,0.9342 0.301,-0.8043 0.101,-1.7386 0.201,0.9314 0.301,-0.8196 0.101,-1.751 0.201,0.9301 0.301,-0.8334 0.1,-1.7634 0.201,0.9303 0.301,-0.8457 0.1,-1.7759 0.201,0.9319 0.301,-0.8565 0.1,-1.7884 0.2,0.935 0.301,-0.8659 0.1,-1.8008 0.2,0.9397 0.301,-0.8736 0.1,-1.8133 0.2,0.9458 0.3,-0.88 0.101,-1.8257 0.201,0.9537 0.301,-0.8846 0.101,-1.8382 0.201,0.963 0.301,-0.8877 0.1,-1.8507 0.201,0.9738 0.301,-0.8894"
       id="path373" />
    <path
       style="fill:none;stroke:#000000;stroke-width:0.79375;stroke-linejoin:round;stop-color:#000000"
       d="m 21.166667,79.374967 v -42.3333"
       id="path371" />
    <path
       style="fill:none;stroke:#000000;stroke-width:0.79375;stroke-linejoin:round;stop-color:#000000"
       d="M 21.1667,58.2083 H 111.125"
       id="path303" />
  </g>
  <g
     inkscape:groupmode="layer"
     id="layer2"
     inkscape:label="12V"
     style="display:none">
    <path
       style="fill:none;stroke:#000000;stroke-width:0.79375;stroke-linecap:butt;stroke-linejoin:miter;stroke-dasharray:none;stroke-opacity:1"
       d="M 21.166667,43.65625 H 113.77083"
       id="path592" />
    <text
       xml:space="preserve"
       style="font-weight:bold;font-size:4.23333px;line-height:1.25;font-family:sans-serif;-inkscape-font-specification:'sans-serif, Bold';letter-spacing:0px;word-spacing:0px;writing-mode:lr-tb;stroke-width:0.264583"
       x="7.9375"
       y="43.65625"
       id="text650"><tspan
         sodipodi:role="line"
         id="tspan648"
         style="stroke-width:0.264583"
         x="7.9375"
         y="43.65625">12Veff</tspan></text>
    <path
       style="fill:none;stroke:#000000;stroke-width:0.79375;stroke-linecap:butt;stroke-linejoin:miter;stroke-dasharray:none;stroke-opacity:1"
       d="M 21.166667,117.73958 H 113.77083"
       id="path592-2" />
    <text
       xml:space="preserve"
       style="font-weight:bold;font-size:4.23333px;line-height:1.25;font-family:sans-serif;-inkscape-font-specification:'sans-serif, Bold';letter-spacing:0px;word-spacing:0px;writing-mode:lr-tb;stroke-width:0.264583"
       x="7.9374995"
       y="117.73958"
       id="text650-7"><tspan
         sodipodi:role="line"
         id="tspan648-0"
         style="stroke-width:0.264583"
         x="7.9374995"
         y="117.73958">12Veff</tspan></text>
  </g>
  <g
     inkscape:groupmode="layer"
     id="layer3"
     inkscape:label="5V"
     style="display:inline">
    <path
       style="fill:none;stroke:#000000;stroke-width:0.79375;stroke-linecap:butt;stroke-linejoin:miter;stroke-dasharray:none;stroke-opacity:1"
       d="M 21.166666,51.593749 H 111.125"
       id="path704" />
    <text
       xml:space="preserve"
       style="font-weight:bold;font-size:4.23333px;line-height:1.25;font-family:sans-serif;-inkscape-font-specification:'sans-serif, Bold';letter-spacing:0px;word-spacing:0px;writing-mode:lr-tb;stroke-width:0.264583"
       x="7.9375"
       y="51.59375"
       id="text1385"><tspan
         sodipodi:role="line"
         id="tspan1383"
         style="stroke-width:0.264583"
         x="7.9375"
         y="51.59375">5V</tspan></text>
    <path
       style="fill:none;stroke:#000000;stroke-width:0.79375;stroke-linecap:butt;stroke-linejoin:miter;stroke-dasharray:none;stroke-opacity:1"
       d="M 21.166666,125.67708 H 111.125"
       id="path704-9" />
    <text
       xml:space="preserve"
       style="font-weight:bold;font-size:4.23333px;line-height:1.25;font-family:sans-serif;-inkscape-font-specification:'sans-serif, Bold';letter-spacing:0px;word-spacing:0px;writing-mode:lr-tb;stroke-width:0.264583"
       x="7.9374995"
       y="125.67708"
       id="text1385-3"><tspan
         sodipodi:role="line"
         id="tspan1383-6"
         style="stroke-width:0.264583"
         x="7.9374995"
         y="125.67708">5V</tspan></text>
  </g>
  <g
     inkscape:groupmode="layer"
     id="layer4"
     inkscape:label="entladungC"
     style="display:none">
    <path
       style="fill:none;stroke:#000000;stroke-width:0.79375;stroke-linecap:butt;stroke-linejoin:miter;stroke-dasharray:none;stroke-opacity:1"
       d="m 33.072916,111.125 35.718751,13.22917"
       id="path2414"
       sodipodi:nodetypes="cc" />
  </g>
  <g
     inkscape:groupmode="layer"
     id="layer5"
     inkscape:label="Rahmen"
     style="display:inline">
    <path
       style="fill:none;stroke:#000000;stroke-width:0.79375;stroke-linejoin:round;stop-color:#000000"
       d="M 21.166667,153.4583 V 111.125"
       id="path371-7"
       inkscape:export-filename="gleichspannung5v.png"
       inkscape:export-xdpi="96"
       inkscape:export-ydpi="96" />
    <path
       style="fill:none;stroke:#000000;stroke-width:0.79375;stroke-linejoin:round;stop-color:#000000"
       d="M 21.1667,132.29163 H 111.125"
       id="path303-5" />
  </g>
  <g
     inkscape:groupmode="layer"
     id="layer6"
     inkscape:label="halbwelle"
     style="display:none">
    <path
       style="fill:none;stroke:#000000;stroke-width:0.79375;stroke-linejoin:round;stop-color:#000000"
       d="m 21.1667,132.29163 c 0.1003,1.8632 0.2005,-2.74 0.3008,-0.8893 0.1003,1.8507 0.2006,-2.726 0.3009,-0.8878 0.1003,1.8383 0.2006,-2.7103 0.3009,-0.8846 0.1002,1.8258 0.2005,-2.6932 0.3008,-0.8799 0.1003,1.8133 0.2006,-2.6745 0.3009,-0.8737 0.1003,1.8009 0.2006,-2.6542 0.3008,-0.8658 0.1003,1.7883 0.2006,-2.6325 0.3009,-0.8566 0.1003,1.7759 0.2006,-2.6091 0.3009,-0.8457 0.1003,1.7635 0.2006,-2.5843 0.3008,-0.8333 0.1003,1.751 0.2006,-2.5581 0.3009,-0.8196 0.1003,1.7385 0.2006,-2.5304 0.3009,-0.8043 0.1003,1.7261 0.2005,-2.5013 0.3008,-0.7877 0.1003,1.7137 0.2006,-2.4707 0.3009,-0.7695 0.1003,1.7011 0.2006,-2.4389 0.3009,-0.7502 0.1002,1.6887 0.2005,-2.4056 0.3008,-0.7294 0.1003,1.6762 0.2006,-2.3711 0.3009,-0.7073 0.1003,1.6637 0.2006,-2.3354 0.3009,-0.6841 0.1002,1.6513 0.2005,-2.2984 0.3008,-0.6596 0.1003,1.6388 0.2006,-2.2603 0.3009,-0.6339 0.1003,1.6263 0.2006,-2.2211 0.3008,-0.6072 0.1003,1.6139 0.2006,-2.1807 0.3009,-0.5793 0.1003,1.6015 0.2006,-2.1394 0.3009,-0.5504 0.1003,1.589 0.2006,-2.0971 0.3008,-0.5206 0.1003,1.5765 0.2006,-2.0539 0.3009,-0.4898 0.1003,1.5641 0.2006,-2.0098 0.3009,-0.4582 0.1003,1.5516 0.2005,-1.9649 0.3008,-0.4257 0.1003,1.5391 0.2006,-1.9193 0.3009,-0.3926 0.1003,1.5267 0.2006,-1.8729 0.3009,-0.3587 0.1002,1.5142 0.2005,-1.8259 0.3008,-0.3241 0.1003,1.5017 0.2006,-1.7784 0.3009,-0.2891 0.1003,1.4893 0.2006,-1.7303 0.3008,-0.2534 0.1003,1.4768 0.2006,-1.6818 0.3009,-0.2174 0.1003,1.4643 0.2006,-1.6329 0.3009,-0.181 0.1003,1.4519 0.2006,-1.5837 0.3008,-0.1443 0.1003,1.4395 0.2006,-1.5341 0.3009,-0.1072 0.1003,1.427 0.2006,-1.4845 0.3009,-0.07 0.1003,1.4145 0.2005,-1.4347 0.3008,-0.0327 0.1003,1.402 0.2006,-1.3849 0.3009,0.005 0.1003,1.3895 0.2006,-1.3351 0.3009,0.042 0.1003,1.3771 0.2005,-1.2853 0.3008,0.0794 0.1003,1.3646 0.2006,-1.2357 0.3009,0.1164 0.1003,1.3522 0.2006,-1.1862 0.3009,0.1535 0.1002,1.3397 0.2005,-1.1372 0.3008,0.1901 0.1003,1.3273 0.2006,-1.0883 0.3009,0.2265 0.1003,1.3148 0.2006,-1.04 0.3008,0.2624 0.1003,1.3023 0.2006,-0.992 0.3009,0.2979 0.1003,1.2898 0.2006,-0.9446 0.3009,0.3328 0.1003,1.2774 0.2006,-0.8978 0.3008,0.3672 0.1003,1.265 0.2006,-0.8516 0.3009,0.4009 0.1003,1.2525 0.2006,-0.8061 0.3009,0.4339 0.1003,1.2401 0.2005,-0.7614 0.3008,0.4662 0.1003,1.2276 0.2006,-0.7175 0.3009,0.4976 0.1003,1.2151 0.2006,-0.6745 0.3009,0.5281 0.1002,1.2027 0.2005,-0.6324 0.3008,0.5578 0.1003,1.1901 0.2006,-0.5914 0.3009,0.5863 0.1003,1.1777 0.2006,-0.5513 0.3009,0.614 0.1002,1.1652 0.2005,-0.5124 0.3008,0.6404 0.1003,1.1528 0.2006,-0.4745 0.3009,0.6658 0.1003,1.1404 0.2006,-0.4378 0.3008,0.6901 0.1003,1.1278 0.2006,-0.4024 0.3009,0.713 0.1003,1.1154 0.2006,-0.3683 0.3009,0.7347 0.1003,1.1029 0.2005,-0.3354 0.3008,0.7551 0.1003,1.0905 0.2006,-0.3038 0.3009,0.7742 0.1003,1.078 0.2006,-0.2736 0.3009,0.792 0.1002,1.0655 0.2005,-0.2449 0.3008,0.8082 0.1003,1.0531 0.2006,-0.2175 0.3009,0.8232 0.1003,1.0406 0.2006,-0.1916 0.3009,0.8366 0.1002,1.0281 0.2005,-0.1672 0.3008,0.8485 0.1003,1.0157 0.2006,-0.1442 0.3009,0.859 0.1003,1.0033 0.2006,-0.1228 0.3008,0.868 0.1003,0.9908 0.2006,-0.103 0.3009,0.8754 0.1003,0.9783 0.2006,-0.0847 0.3009,0.8812 0.1003,0.9658 0.2005,-0.0678 0.3008,0.8856 0.1003,0.9533 0.2006,-0.0527 0.3009,0.8883 0.1003,0.9409 0.12535,-0.26136 0.22565,0.66704 h 22.489584 c 0.150434,-0.44477 0.05017,-0.43854 0.150466,-0.44474 0.1003,-0.006 0.2005,-0.8701 0.3008,-0.8888 0.1003,-0.0187 0.2006,-0.8552 0.3009,-0.8864 0.1003,-0.0311 0.2006,-0.8388 0.3009,-0.8824 0.1002,-0.0436 0.2005,-0.8209 0.3008,-0.877 0.1003,-0.0561 0.2006,-0.8014 0.3009,-0.87 0.1003,-0.0685 0.2006,-0.7804 0.3008,-0.8614 0.1003,-0.081 0.2006,-0.7578 0.3009,-0.8513 0.1003,-0.0934 0.2006,-0.7338 0.3009,-0.8397 0.1003,-0.1059 0.2006,-0.7082 0.3008,-0.8266 0.1003,-0.1184 0.2006,-0.6813 0.3009,-0.8122 0.1003,-0.1308 0.2006,-0.6528 0.3009,-0.7961 0.1003,-0.1433 0.2005,-0.623 0.3008,-0.7788 0.1003,-0.1558 0.2006,-0.5918 0.3009,-0.76 0.1003,-0.1683 0.2006,-0.5592 0.3009,-0.74 0.1002,-0.1807 0.2005,-0.5253 0.3008,-0.7185 0.1003,-0.1932 0.2006,-0.4902 0.3009,-0.6959 0.1003,-0.2056 0.2006,-0.4539 0.3009,-0.672 0.1002,-0.218 0.2005,-0.4163 0.3008,-0.6469 0.1003,-0.2305 0.2006,-0.3776 0.3009,-0.6206 0.1003,-0.243 0.2006,-0.3379 0.3008,-0.5934 0.1003,-0.2555 0.2006,-0.297 0.3009,-0.565 0.1003,-0.2679 0.2006,-0.2552 0.3009,-0.5356 0.1003,-0.2804 0.2005,-0.2124 0.3008,-0.5053 0.1003,-0.2929 0.2006,-0.1688 0.3009,-0.4741 0.1003,-0.3053 0.2006,-0.1243 0.3009,-0.4421 0.1003,-0.3178 0.2005,-0.0789 0.3008,-0.4092 0.1003,-0.3303 0.2006,-0.033 0.3009,-0.3757 0.1003,-0.3427 0.2006,0.0137 0.3009,-0.3415 0.1002,-0.3552 0.2005,0.061 0.3008,-0.3067 0.1003,-0.3676 0.2006,0.1088 0.3009,-0.2713 0.1003,-0.3801 0.2006,0.1571 0.3009,-0.2355 0.1002,-0.3925 0.2005,0.2058 0.3008,-0.1992 0.1003,-0.405 0.2006,0.2548 0.3009,-0.1627 0.1003,-0.4174 0.2006,0.3043 0.3008,-0.1257 0.1003,-0.43 0.2006,0.3538 0.3009,-0.0886 0.1003,-0.4425 0.2006,0.4035 0.3009,-0.0514 0.1003,-0.4549 0.2005,0.4533 0.3008,-0.014 0.1003,-0.4674 0.2006,0.5031 0.3009,0.0233 0.1003,-0.4798 0.2006,0.553 0.3009,0.0607 0.1002,-0.4922 0.2005,0.6027 0.3008,0.098 0.1003,-0.5048 0.2006,0.6522 0.3009,0.135 0.1003,-0.5172 0.2006,0.7014 0.3009,0.1718 0.1002,-0.5297 0.2005,0.7504 0.3008,0.2083 0.1003,-0.5421 0.2006,0.7991 0.3009,0.2445 0.1003,-0.5546 0.2006,0.8473 0.3008,0.2802 0.1003,-0.567 0.2006,0.895 0.3009,0.3154 0.1003,-0.5795 0.2006,0.9421 0.3009,0.3501 0.1003,-0.5919 0.2006,0.9886 0.3008,0.3842 0.1003,-0.6045 0.2006,1.0344 0.3009,0.4175 0.1003,-0.6169 0.2006,1.0795 0.3009,0.4502 0.1003,-0.6294 0.2005,1.1238 0.3008,0.4819 0.1003,-0.6418 0.2006,1.1673 0.3009,0.513 0.1003,-0.6543 0.2006,1.2098 0.3009,0.5431 0.1002,-0.6668 0.2005,1.2513 0.3008,0.5721 0.1003,-0.6792 0.2006,1.292 0.3009,0.6003 0.1003,-0.6917 0.2006,1.3315 0.3008,0.6274 0.1003,-0.7042 0.2006,1.3698 0.3009,0.6532 0.1003,-0.7166 0.2006,1.4072 0.3009,0.6781 0.1003,-0.7291 0.2006,1.4432 0.3008,0.7017 0.1003,-0.7416 0.2006,1.478 0.3009,0.724 0.1003,-0.754 0.2006,1.5115 0.3009,0.7451 0.1003,-0.7665 0.2005,1.5437 0.3008,0.7648 0.1003,-0.7789 0.2006,1.5746 0.3009,0.7833 0.1003,-0.7914 0.2006,1.6041 0.3009,0.8002 0.1002,-0.8038 0.2005,1.6322 0.3008,0.8159 0.1003,-0.8163 0.2006,1.6588 0.3009,0.8301 0.1003,-0.8288 0.2006,1.684 0.3009,0.8427 0.1002,-0.8412 0.2005,1.7077 0.3008,0.854 0.1003,-0.8537 0.2006,1.7298 0.3009,0.8637 0.1003,-0.8662 0.2006,1.7505 0.3008,0.8718 0.1003,-0.8786 0.2006,1.7696 0.3009,0.8785 0.1003,-0.891 0.2006,1.7872 0.3009,0.8836 0.1003,-0.9035 0.2005,1.8032 0.3008,0.8872 0.1003,-0.916 0.2006,1.8175 0.3009,0.889 0.1003,-0.9284 0.04219,0.19961 0.04219,0.19961"
       id="path373-6"
       sodipodi:nodetypes="csscsscsscsssscsscsscsscsssscsscsscssssssscsscsscsssscsscsscsssscsscsscsssscccsccscccsccssccscccsccsssssscsscsscsssscsscsscsscsssscsscsscsssscsscsscssssc" />
  </g>
</svg>
